<svg width="115" height="30" viewBox="0 0 115 30" fill="none" xmlns="http://www.w3.org/2000/svg">
<rect width="115" height="30" rx="15" fill="white"/>
<path d="M13.024 13.084L11.44 17.308H14.64L13.024 13.084ZM13.84 10.62L18.048 21.244L16.24 21.5L15.2 18.764H10.912L9.888 21.5H8.096L12.256 10.62H13.84ZM22.7646 15.004C21.9966 15.004 21.4633 15.276 21.1646 15.82C20.866 16.3533 20.7166 16.94 20.7166 17.58C20.7166 18.2733 20.8553 18.876 21.1326 19.388C21.4206 19.9 21.9646 20.156 22.7646 20.156C23.0313 20.156 23.3086 20.0973 23.5966 19.98C23.8953 19.852 24.1726 19.692 24.4286 19.5V15.66C24.1726 15.4573 23.8953 15.2973 23.5966 15.18C23.3086 15.0627 23.0313 15.004 22.7646 15.004ZM26.2526 10.204V21.5H25.2766L24.7806 20.764C24.4393 21.0627 24.0393 21.292 23.5806 21.452C23.122 21.612 22.7006 21.692 22.3166 21.692C21.186 21.692 20.322 21.3027 19.7246 20.524C19.138 19.7347 18.8446 18.7533 18.8446 17.58C18.8446 16.4067 19.154 15.4307 19.7726 14.652C20.402 13.8627 21.2766 13.468 22.3966 13.468C22.6953 13.468 23.0313 13.5267 23.4046 13.644C23.778 13.7507 24.1193 13.9053 24.4286 14.108V10.38L26.2526 10.204ZM32.0303 15.004C31.2623 15.004 30.7289 15.276 30.4303 15.82C30.1316 16.3533 29.9823 16.94 29.9823 17.58C29.9823 18.2733 30.1209 18.876 30.3983 19.388C30.6863 19.9 31.2303 20.156 32.0303 20.156C32.2969 20.156 32.5743 20.0973 32.8623 19.98C33.1609 19.852 33.4383 19.692 33.6943 19.5V15.66C33.4383 15.4573 33.1609 15.2973 32.8623 15.18C32.5743 15.0627 32.2969 15.004 32.0303 15.004ZM35.5183 10.204V21.5H34.5423L34.0463 20.764C33.7049 21.0627 33.3049 21.292 32.8463 21.452C32.3876 21.612 31.9663 21.692 31.5823 21.692C30.4516 21.692 29.5876 21.3027 28.9903 20.524C28.4036 19.7347 28.1103 18.7533 28.1103 17.58C28.1103 16.4067 28.4196 15.4307 29.0383 14.652C29.6676 13.8627 30.5423 13.468 31.6623 13.468C31.9609 13.468 32.2969 13.5267 32.6703 13.644C33.0436 13.7507 33.3849 13.9053 33.6943 14.108V10.38L35.5183 10.204ZM45.9091 21.388C45.7491 21.4947 45.5251 21.5853 45.2371 21.66C44.9598 21.7453 44.7038 21.788 44.4691 21.788C43.6051 21.788 42.9225 21.564 42.4211 21.116C41.9198 20.668 41.6691 20.0227 41.6691 19.18V15.18H40.6131V13.788H41.6691V11.916L43.4771 11.548V13.788H44.8851L45.4451 15.18H43.4771V18.876C43.4771 19.2707 43.5678 19.6013 43.7491 19.868C43.9305 20.124 44.2131 20.252 44.5971 20.252C44.7358 20.252 44.8691 20.236 44.9971 20.204C45.1358 20.1613 45.2691 20.1133 45.3971 20.06L45.9091 21.388ZM50.6203 21.692C49.4149 21.6813 48.4869 21.308 47.8363 20.572C47.1856 19.8253 46.8603 18.8333 46.8603 17.596C46.8709 16.38 47.2176 15.404 47.9003 14.668C48.5829 13.9213 49.5323 13.5427 50.7483 13.532C51.9963 13.532 52.9563 13.916 53.6283 14.684C54.3003 15.452 54.6363 16.4493 54.6363 17.676C54.6256 18.892 54.2576 19.868 53.5323 20.604C52.8069 21.3293 51.8363 21.692 50.6203 21.692ZM52.7803 17.676C52.7803 16.8973 52.6149 16.2733 52.2843 15.804C51.9643 15.324 51.4683 15.084 50.7963 15.084C50.1243 15.084 49.6123 15.3027 49.2603 15.74C48.9083 16.1667 48.7323 16.78 48.7323 17.58C48.7323 18.3907 48.8816 19.0253 49.1803 19.484C49.4789 19.932 49.9643 20.156 50.6363 20.156C51.3083 20.156 51.8309 19.948 52.2043 19.532C52.5776 19.116 52.7696 18.4973 52.7803 17.676ZM60.277 21.5V10.38L62.085 10.204V14.092C62.3943 13.9 62.725 13.7507 63.077 13.644C63.429 13.5267 63.7543 13.468 64.053 13.468C65.1943 13.468 66.0583 13.8627 66.645 14.652C67.2423 15.4307 67.541 16.4067 67.541 17.58C67.541 18.7533 67.237 19.7347 66.629 20.524C66.0317 21.3027 65.173 21.692 64.053 21.692C63.7117 21.692 63.3117 21.6173 62.853 21.468C62.405 21.3187 62.0157 21.1107 61.685 20.844L61.237 21.5H60.277ZM62.085 19.596C62.3197 19.7667 62.5757 19.9053 62.853 20.012C63.1303 20.108 63.3917 20.156 63.637 20.156C64.3943 20.156 64.9223 19.8893 65.221 19.356C65.5303 18.812 65.685 18.2253 65.685 17.596C65.685 16.892 65.541 16.284 65.253 15.772C64.9757 15.26 64.437 15.004 63.637 15.004C63.3917 15.004 63.1303 15.0573 62.853 15.164C62.5757 15.2707 62.3197 15.4093 62.085 15.58V19.596ZM70.6176 19.228C70.6176 19.484 70.719 19.724 70.9216 19.948C71.1243 20.1613 71.407 20.268 71.7696 20.268C72.1003 20.268 72.4256 20.188 72.7456 20.028C73.0763 19.8573 73.375 19.6387 73.6416 19.372V17.996H71.9136C71.487 17.996 71.1616 18.1187 70.9376 18.364C70.7243 18.6093 70.6176 18.8973 70.6176 19.228ZM69.4816 14.236C69.7803 14.0333 70.223 13.868 70.8096 13.74C71.3963 13.6013 71.855 13.532 72.1856 13.532C73.103 13.532 73.8763 13.7933 74.5056 14.316C75.135 14.8387 75.4496 15.5053 75.4496 16.316V21.5H74.4736C74.399 21.3933 74.3243 21.2813 74.2496 21.164C74.175 21.036 74.1003 20.9187 74.0256 20.812C73.7483 21.0467 73.407 21.2547 73.0016 21.436C72.5963 21.6067 72.1963 21.692 71.8016 21.692C70.8736 21.692 70.1803 21.4627 69.7216 21.004C69.2736 20.5453 69.0496 19.9533 69.0496 19.228C69.0496 18.4387 69.3163 17.836 69.8496 17.42C70.383 16.9933 71.0816 16.78 71.9456 16.78H73.6256C73.5936 16.3213 73.4763 15.9427 73.2736 15.644C73.071 15.3347 72.719 15.18 72.2176 15.18C71.8123 15.18 71.407 15.2333 71.0016 15.34C70.607 15.4467 70.2656 15.5693 69.9776 15.708C69.8923 15.4627 69.807 15.2173 69.7216 14.972C69.6363 14.7267 69.5563 14.4813 69.4816 14.236ZM82.0371 15.612C81.7065 15.452 81.3758 15.324 81.0451 15.228C80.7251 15.1213 80.3678 15.068 79.9731 15.068C79.6425 15.068 79.3811 15.1373 79.1891 15.276C78.9971 15.404 78.9011 15.5853 78.9011 15.82C78.9011 16.0013 79.0131 16.1667 79.2371 16.316C79.4718 16.4547 79.8025 16.604 80.2291 16.764C80.8691 16.988 81.4665 17.308 82.0211 17.724C82.5758 18.1293 82.8531 18.6627 82.8531 19.324C82.8531 20.0707 82.5811 20.652 82.0371 21.068C81.5038 21.484 80.7145 21.692 79.6691 21.692C79.3385 21.692 78.9065 21.6333 78.3731 21.516C77.8398 21.3987 77.3971 21.2067 77.0451 20.94L77.5891 19.628C77.9411 19.7987 78.2931 19.932 78.6451 20.028C78.9971 20.1133 79.3331 20.156 79.6531 20.156C80.1011 20.156 80.4425 20.092 80.6771 19.964C80.9225 19.8253 81.0451 19.6387 81.0451 19.404C81.0451 19.148 80.9171 18.924 80.6611 18.732C80.4158 18.5293 80.0585 18.3533 79.5891 18.204C78.9811 18.0013 78.3998 17.7187 77.8451 17.356C77.3011 16.9827 77.0291 16.4813 77.0291 15.852C77.0291 15.1267 77.2958 14.5613 77.8291 14.156C78.3625 13.74 79.0878 13.532 80.0051 13.532C80.3358 13.532 80.7571 13.6013 81.2691 13.74C81.7811 13.868 82.2185 14.0547 82.5811 14.3L82.0371 15.612ZM84.5895 21.5V10.38L86.3975 10.204V16.748L89.7895 13.532L90.8135 14.78C90.4508 15.1213 90.0775 15.4627 89.6935 15.804C89.3202 16.1453 88.9468 16.4867 88.5735 16.828L91.5495 21.5H89.4535L87.3095 17.996C87.1602 18.1347 87.0055 18.2787 86.8455 18.428C86.6855 18.5667 86.5362 18.7053 86.3975 18.844V21.5H84.5895ZM99.6715 18.108H94.2955C94.3702 18.716 94.5995 19.212 94.9835 19.596C95.3675 19.98 95.9115 20.172 96.6155 20.172C97.0208 20.172 97.3728 20.124 97.6715 20.028C97.9702 19.932 98.2902 19.804 98.6315 19.644C98.7275 19.8573 98.8182 20.076 98.9035 20.3C98.9995 20.524 99.0902 20.7427 99.1755 20.956C98.8235 21.212 98.3862 21.3987 97.8635 21.516C97.3408 21.6333 96.9142 21.692 96.5835 21.692C95.2608 21.692 94.2315 21.324 93.4955 20.588C92.7595 19.8413 92.3915 18.8547 92.3915 17.628C92.3915 16.4013 92.7328 15.4147 93.4155 14.668C94.0982 13.9107 95.0262 13.532 96.1995 13.532C97.5328 13.532 98.4448 13.996 98.9355 14.924C99.4262 15.8413 99.6715 16.9027 99.6715 18.108ZM97.9435 16.892C97.8368 16.316 97.6342 15.8733 97.3355 15.564C97.0475 15.244 96.6528 15.084 96.1515 15.084C95.6395 15.084 95.2235 15.244 94.9035 15.564C94.5942 15.884 94.4022 16.3267 94.3275 16.892H97.9435ZM105.769 21.388C105.609 21.4947 105.385 21.5853 105.097 21.66C104.819 21.7453 104.563 21.788 104.329 21.788C103.465 21.788 102.782 21.564 102.281 21.116C101.779 20.668 101.529 20.0227 101.529 19.18V15.18H100.473V13.788H101.529V11.916L103.337 11.548V13.788H104.745L105.305 15.18H103.337V18.876C103.337 19.2707 103.427 19.6013 103.609 19.868C103.79 20.124 104.073 20.252 104.457 20.252C104.595 20.252 104.729 20.236 104.857 20.204C104.995 20.1613 105.129 20.1133 105.257 20.06L105.769 21.388Z" fill="#363534"/>
</svg>
