<svg width="119" height="34" viewBox="0 0 119 34" fill="none" xmlns="http://www.w3.org/2000/svg">
<g filter="url(#filter0_d_52_490)">
<rect x="1" width="115" height="30" rx="15" fill="white" shape-rendering="crispEdges"/>
<path d="M14.024 13.084L12.44 17.308H15.64L14.024 13.084ZM14.84 10.62L19.048 21.244L17.24 21.5L16.2 18.764H11.912L10.888 21.5H9.096L13.256 10.62H14.84ZM23.7646 15.004C22.9966 15.004 22.4633 15.276 22.1646 15.82C21.866 16.3533 21.7166 16.94 21.7166 17.58C21.7166 18.2733 21.8553 18.876 22.1326 19.388C22.4206 19.9 22.9646 20.156 23.7646 20.156C24.0313 20.156 24.3086 20.0973 24.5966 19.98C24.8953 19.852 25.1726 19.692 25.4286 19.5V15.66C25.1726 15.4573 24.8953 15.2973 24.5966 15.18C24.3086 15.0627 24.0313 15.004 23.7646 15.004ZM27.2526 10.204V21.5H26.2766L25.7806 20.764C25.4393 21.0627 25.0393 21.292 24.5806 21.452C24.122 21.612 23.7006 21.692 23.3166 21.692C22.186 21.692 21.322 21.3027 20.7246 20.524C20.138 19.7347 19.8446 18.7533 19.8446 17.58C19.8446 16.4067 20.154 15.4307 20.7726 14.652C21.402 13.8627 22.2766 13.468 23.3966 13.468C23.6953 13.468 24.0313 13.5267 24.4046 13.644C24.778 13.7507 25.1193 13.9053 25.4286 14.108V10.38L27.2526 10.204ZM33.0303 15.004C32.2623 15.004 31.7289 15.276 31.4303 15.82C31.1316 16.3533 30.9823 16.94 30.9823 17.58C30.9823 18.2733 31.1209 18.876 31.3983 19.388C31.6863 19.9 32.2303 20.156 33.0303 20.156C33.2969 20.156 33.5743 20.0973 33.8623 19.98C34.1609 19.852 34.4383 19.692 34.6943 19.5V15.66C34.4383 15.4573 34.1609 15.2973 33.8623 15.18C33.5743 15.0627 33.2969 15.004 33.0303 15.004ZM36.5183 10.204V21.5H35.5423L35.0463 20.764C34.7049 21.0627 34.3049 21.292 33.8463 21.452C33.3876 21.612 32.9663 21.692 32.5823 21.692C31.4516 21.692 30.5876 21.3027 29.9903 20.524C29.4036 19.7347 29.1103 18.7533 29.1103 17.58C29.1103 16.4067 29.4196 15.4307 30.0383 14.652C30.6676 13.8627 31.5423 13.468 32.6623 13.468C32.9609 13.468 33.2969 13.5267 33.6703 13.644C34.0436 13.7507 34.3849 13.9053 34.6943 14.108V10.38L36.5183 10.204ZM46.9091 21.388C46.7491 21.4947 46.5251 21.5853 46.2371 21.66C45.9598 21.7453 45.7038 21.788 45.4691 21.788C44.6051 21.788 43.9225 21.564 43.4211 21.116C42.9198 20.668 42.6691 20.0227 42.6691 19.18V15.18H41.6131V13.788H42.6691V11.916L44.4771 11.548V13.788H45.8851L46.4451 15.18H44.4771V18.876C44.4771 19.2707 44.5678 19.6013 44.7491 19.868C44.9305 20.124 45.2131 20.252 45.5971 20.252C45.7358 20.252 45.8691 20.236 45.9971 20.204C46.1358 20.1613 46.2691 20.1133 46.3971 20.06L46.9091 21.388ZM51.6203 21.692C50.4149 21.6813 49.4869 21.308 48.8363 20.572C48.1856 19.8253 47.8603 18.8333 47.8603 17.596C47.8709 16.38 48.2176 15.404 48.9003 14.668C49.5829 13.9213 50.5323 13.5427 51.7483 13.532C52.9963 13.532 53.9563 13.916 54.6283 14.684C55.3003 15.452 55.6363 16.4493 55.6363 17.676C55.6256 18.892 55.2576 19.868 54.5323 20.604C53.8069 21.3293 52.8363 21.692 51.6203 21.692ZM53.7803 17.676C53.7803 16.8973 53.6149 16.2733 53.2843 15.804C52.9643 15.324 52.4683 15.084 51.7963 15.084C51.1243 15.084 50.6123 15.3027 50.2603 15.74C49.9083 16.1667 49.7323 16.78 49.7323 17.58C49.7323 18.3907 49.8816 19.0253 50.1803 19.484C50.4789 19.932 50.9643 20.156 51.6363 20.156C52.3083 20.156 52.8309 19.948 53.2043 19.532C53.5776 19.116 53.7696 18.4973 53.7803 17.676ZM61.277 21.5V10.38L63.085 10.204V14.092C63.3943 13.9 63.725 13.7507 64.077 13.644C64.429 13.5267 64.7543 13.468 65.053 13.468C66.1943 13.468 67.0583 13.8627 67.645 14.652C68.2423 15.4307 68.541 16.4067 68.541 17.58C68.541 18.7533 68.237 19.7347 67.629 20.524C67.0317 21.3027 66.173 21.692 65.053 21.692C64.7117 21.692 64.3117 21.6173 63.853 21.468C63.405 21.3187 63.0157 21.1107 62.685 20.844L62.237 21.5H61.277ZM63.085 19.596C63.3197 19.7667 63.5757 19.9053 63.853 20.012C64.1303 20.108 64.3917 20.156 64.637 20.156C65.3943 20.156 65.9223 19.8893 66.221 19.356C66.5303 18.812 66.685 18.2253 66.685 17.596C66.685 16.892 66.541 16.284 66.253 15.772C65.9757 15.26 65.437 15.004 64.637 15.004C64.3917 15.004 64.1303 15.0573 63.853 15.164C63.5757 15.2707 63.3197 15.4093 63.085 15.58V19.596ZM71.6176 19.228C71.6176 19.484 71.719 19.724 71.9216 19.948C72.1243 20.1613 72.407 20.268 72.7696 20.268C73.1003 20.268 73.4256 20.188 73.7456 20.028C74.0763 19.8573 74.375 19.6387 74.6416 19.372V17.996H72.9136C72.487 17.996 72.1616 18.1187 71.9376 18.364C71.7243 18.6093 71.6176 18.8973 71.6176 19.228ZM70.4816 14.236C70.7803 14.0333 71.223 13.868 71.8096 13.74C72.3963 13.6013 72.855 13.532 73.1856 13.532C74.103 13.532 74.8763 13.7933 75.5056 14.316C76.135 14.8387 76.4496 15.5053 76.4496 16.316V21.5H75.4736C75.399 21.3933 75.3243 21.2813 75.2496 21.164C75.175 21.036 75.1003 20.9187 75.0256 20.812C74.7483 21.0467 74.407 21.2547 74.0016 21.436C73.5963 21.6067 73.1963 21.692 72.8016 21.692C71.8736 21.692 71.1803 21.4627 70.7216 21.004C70.2736 20.5453 70.0496 19.9533 70.0496 19.228C70.0496 18.4387 70.3163 17.836 70.8496 17.42C71.383 16.9933 72.0816 16.78 72.9456 16.78H74.6256C74.5936 16.3213 74.4763 15.9427 74.2736 15.644C74.071 15.3347 73.719 15.18 73.2176 15.18C72.8123 15.18 72.407 15.2333 72.0016 15.34C71.607 15.4467 71.2656 15.5693 70.9776 15.708C70.8923 15.4627 70.807 15.2173 70.7216 14.972C70.6363 14.7267 70.5563 14.4813 70.4816 14.236ZM83.0371 15.612C82.7065 15.452 82.3758 15.324 82.0451 15.228C81.7251 15.1213 81.3678 15.068 80.9731 15.068C80.6425 15.068 80.3811 15.1373 80.1891 15.276C79.9971 15.404 79.9011 15.5853 79.9011 15.82C79.9011 16.0013 80.0131 16.1667 80.2371 16.316C80.4718 16.4547 80.8025 16.604 81.2291 16.764C81.8691 16.988 82.4665 17.308 83.0211 17.724C83.5758 18.1293 83.8531 18.6627 83.8531 19.324C83.8531 20.0707 83.5811 20.652 83.0371 21.068C82.5038 21.484 81.7145 21.692 80.6691 21.692C80.3385 21.692 79.9065 21.6333 79.3731 21.516C78.8398 21.3987 78.3971 21.2067 78.0451 20.94L78.5891 19.628C78.9411 19.7987 79.2931 19.932 79.6451 20.028C79.9971 20.1133 80.3331 20.156 80.6531 20.156C81.1011 20.156 81.4425 20.092 81.6771 19.964C81.9225 19.8253 82.0451 19.6387 82.0451 19.404C82.0451 19.148 81.9171 18.924 81.6611 18.732C81.4158 18.5293 81.0585 18.3533 80.5891 18.204C79.9811 18.0013 79.3998 17.7187 78.8451 17.356C78.3011 16.9827 78.0291 16.4813 78.0291 15.852C78.0291 15.1267 78.2958 14.5613 78.8291 14.156C79.3625 13.74 80.0878 13.532 81.0051 13.532C81.3358 13.532 81.7571 13.6013 82.2691 13.74C82.7811 13.868 83.2185 14.0547 83.5811 14.3L83.0371 15.612ZM85.5895 21.5V10.38L87.3975 10.204V16.748L90.7895 13.532L91.8135 14.78C91.4508 15.1213 91.0775 15.4627 90.6935 15.804C90.3202 16.1453 89.9468 16.4867 89.5735 16.828L92.5495 21.5H90.4535L88.3095 17.996C88.1602 18.1347 88.0055 18.2787 87.8455 18.428C87.6855 18.5667 87.5362 18.7053 87.3975 18.844V21.5H85.5895ZM100.672 18.108H95.2955C95.3702 18.716 95.5995 19.212 95.9835 19.596C96.3675 19.98 96.9115 20.172 97.6155 20.172C98.0208 20.172 98.3728 20.124 98.6715 20.028C98.9702 19.932 99.2902 19.804 99.6315 19.644C99.7275 19.8573 99.8182 20.076 99.9035 20.3C99.9995 20.524 100.09 20.7427 100.176 20.956C99.8235 21.212 99.3862 21.3987 98.8635 21.516C98.3408 21.6333 97.9142 21.692 97.5835 21.692C96.2608 21.692 95.2315 21.324 94.4955 20.588C93.7595 19.8413 93.3915 18.8547 93.3915 17.628C93.3915 16.4013 93.7328 15.4147 94.4155 14.668C95.0982 13.9107 96.0262 13.532 97.1995 13.532C98.5328 13.532 99.4448 13.996 99.9355 14.924C100.426 15.8413 100.672 16.9027 100.672 18.108ZM98.9435 16.892C98.8368 16.316 98.6342 15.8733 98.3355 15.564C98.0475 15.244 97.6528 15.084 97.1515 15.084C96.6395 15.084 96.2235 15.244 95.9035 15.564C95.5942 15.884 95.4022 16.3267 95.3275 16.892H98.9435ZM106.769 21.388C106.609 21.4947 106.385 21.5853 106.097 21.66C105.819 21.7453 105.563 21.788 105.329 21.788C104.465 21.788 103.782 21.564 103.281 21.116C102.779 20.668 102.529 20.0227 102.529 19.18V15.18H101.473V13.788H102.529V11.916L104.337 11.548V13.788H105.745L106.305 15.18H104.337V18.876C104.337 19.2707 104.427 19.6013 104.609 19.868C104.79 20.124 105.073 20.252 105.457 20.252C105.595 20.252 105.729 20.236 105.857 20.204C105.995 20.1613 106.129 20.1133 106.257 20.06L106.769 21.388Z" fill="#E76C1F"/>
</g>
<defs>
<filter id="filter0_d_52_490" x="0" y="0" width="119" height="34" filterUnits="userSpaceOnUse" color-interpolation-filters="sRGB">
<feFlood flood-opacity="0" result="BackgroundImageFix"/>
<feColorMatrix in="SourceAlpha" type="matrix" values="0 0 0 0 0 0 0 0 0 0 0 0 0 0 0 0 0 0 127 0" result="hardAlpha"/>
<feOffset dx="1" dy="2"/>
<feGaussianBlur stdDeviation="1"/>
<feComposite in2="hardAlpha" operator="out"/>
<feColorMatrix type="matrix" values="0 0 0 0 0 0 0 0 0 0 0 0 0 0 0 0 0 0 0.2 0"/>
<feBlend mode="normal" in2="BackgroundImageFix" result="effect1_dropShadow_52_490"/>
<feBlend mode="normal" in="SourceGraphic" in2="effect1_dropShadow_52_490" result="shape"/>
</filter>
</defs>
</svg>
