<svg width="115" height="30" viewBox="0 0 115 30" fill="none" xmlns="http://www.w3.org/2000/svg">
<rect y="1" width="74" height="29" rx="14.5" fill="white"/>
<path d="M13.024 13.584L11.44 17.808H14.64L13.024 13.584ZM13.84 11.12L18.048 21.744L16.24 22L15.2 19.264H10.912L9.888 22H8.096L12.256 11.12H13.84ZM22.7646 15.504C21.9966 15.504 21.4633 15.776 21.1646 16.32C20.866 16.8533 20.7166 17.44 20.7166 18.08C20.7166 18.7733 20.8553 19.376 21.1326 19.888C21.4206 20.4 21.9646 20.656 22.7646 20.656C23.0313 20.656 23.3086 20.5973 23.5966 20.48C23.8953 20.352 24.1726 20.192 24.4286 20V16.16C24.1726 15.9573 23.8953 15.7973 23.5966 15.68C23.3086 15.5627 23.0313 15.504 22.7646 15.504ZM26.2526 10.704V22H25.2766L24.7806 21.264C24.4393 21.5627 24.0393 21.792 23.5806 21.952C23.122 22.112 22.7006 22.192 22.3166 22.192C21.186 22.192 20.322 21.8027 19.7246 21.024C19.138 20.2347 18.8446 19.2533 18.8446 18.08C18.8446 16.9067 19.154 15.9307 19.7726 15.152C20.402 14.3627 21.2766 13.968 22.3966 13.968C22.6953 13.968 23.0313 14.0267 23.4046 14.144C23.778 14.2507 24.1193 14.4053 24.4286 14.608V10.88L26.2526 10.704ZM32.0303 15.504C31.2623 15.504 30.7289 15.776 30.4303 16.32C30.1316 16.8533 29.9823 17.44 29.9823 18.08C29.9823 18.7733 30.1209 19.376 30.3983 19.888C30.6863 20.4 31.2303 20.656 32.0303 20.656C32.2969 20.656 32.5743 20.5973 32.8623 20.48C33.1609 20.352 33.4383 20.192 33.6943 20V16.16C33.4383 15.9573 33.1609 15.7973 32.8623 15.68C32.5743 15.5627 32.2969 15.504 32.0303 15.504ZM35.5183 10.704V22H34.5423L34.0463 21.264C33.7049 21.5627 33.3049 21.792 32.8463 21.952C32.3876 22.112 31.9663 22.192 31.5823 22.192C30.4516 22.192 29.5876 21.8027 28.9903 21.024C28.4036 20.2347 28.1103 19.2533 28.1103 18.08C28.1103 16.9067 28.4196 15.9307 29.0383 15.152C29.6676 14.3627 30.5423 13.968 31.6623 13.968C31.9609 13.968 32.2969 14.0267 32.6703 14.144C33.0436 14.2507 33.3849 14.4053 33.6943 14.608V10.88L35.5183 10.704ZM44.6559 18.608H39.2799C39.3545 19.216 39.5839 19.712 39.9679 20.096C40.3519 20.48 40.8959 20.672 41.5999 20.672C42.0052 20.672 42.3572 20.624 42.6559 20.528C42.9545 20.432 43.2745 20.304 43.6159 20.144C43.7119 20.3573 43.8025 20.576 43.8879 20.8C43.9839 21.024 44.0745 21.2427 44.1599 21.456C43.8079 21.712 43.3705 21.8987 42.8479 22.016C42.3252 22.1333 41.8985 22.192 41.5679 22.192C40.2452 22.192 39.2159 21.824 38.4799 21.088C37.7439 20.3413 37.3759 19.3547 37.3759 18.128C37.3759 16.9013 37.7172 15.9147 38.3999 15.168C39.0825 14.4107 40.0105 14.032 41.1839 14.032C42.5172 14.032 43.4292 14.496 43.9199 15.424C44.4105 16.3413 44.6559 17.4027 44.6559 18.608ZM42.9279 17.392C42.8212 16.816 42.6185 16.3733 42.3199 16.064C42.0319 15.744 41.6372 15.584 41.1359 15.584C40.6239 15.584 40.2079 15.744 39.8879 16.064C39.5785 16.384 39.3865 16.8267 39.3119 17.392H42.9279ZM49.9209 15.504C49.1529 15.504 48.6195 15.776 48.3209 16.32C48.0222 16.8533 47.8729 17.44 47.8729 18.08C47.8729 18.7733 48.0115 19.376 48.2889 19.888C48.5769 20.4 49.1209 20.656 49.9209 20.656C50.1875 20.656 50.4649 20.5973 50.7529 20.48C51.0515 20.352 51.3289 20.192 51.5849 20V16.16C51.3289 15.9573 51.0515 15.7973 50.7529 15.68C50.4649 15.5627 50.1875 15.504 49.9209 15.504ZM53.4089 10.704V22H52.4329L51.9369 21.264C51.5955 21.5627 51.1955 21.792 50.7369 21.952C50.2782 22.112 49.8569 22.192 49.4729 22.192C48.3422 22.192 47.4782 21.8027 46.8809 21.024C46.2942 20.2347 46.0009 19.2533 46.0009 18.08C46.0009 16.9067 46.3102 15.9307 46.9289 15.152C47.5582 14.3627 48.4329 13.968 49.5529 13.968C49.8515 13.968 50.1875 14.0267 50.5609 14.144C50.9342 14.2507 51.2755 14.4053 51.5849 14.608V10.88L53.4089 10.704ZM64.3598 22H59.5278L59.3838 20.72H61.1118V15.04L60.1838 15.616C60.0451 15.4133 59.9011 15.2107 59.7518 15.008C59.6131 14.7947 59.4744 14.5867 59.3358 14.384L61.7198 12.944H62.9198V20.72H64.1998C64.2318 20.9333 64.2584 21.152 64.2798 21.376C64.3118 21.5893 64.3384 21.7973 64.3598 22Z" fill="#E76C1F"/>
<rect x="90" width="25" height="30" rx="8" fill="white"/>
<path d="M105.904 16.304H102.992V19.936L101.296 19.872V16.304H98.4L98.272 14.928H101.296V11.456L102.992 11.504V14.928H105.744L105.904 16.304Z" fill="#E76C1F"/>
</svg>
