<svg width="43" height="29" viewBox="0 0 43 29" fill="none" xmlns="http://www.w3.org/2000/svg">
<path d="M42.856 18.456H38.488V23.904L35.944 23.808V18.456H31.6L31.408 16.392H35.944V11.184L38.488 11.256V16.392H42.616L42.856 18.456Z" fill="#363534"/>
<path d="M20.52 10.104C22.328 10.104 23.584 10.56 24.288 11.472C25.008 12.368 25.368 13.336 25.368 14.376C25.368 15.304 25.088 16.168 24.528 16.968C23.984 17.768 23.128 18.656 21.96 19.632L19.272 21.912H25.656L25.992 24H15.744V22.128L20.496 17.904C21.424 17.088 22.048 16.432 22.368 15.936C22.704 15.424 22.88 14.904 22.896 14.376C22.896 13.784 22.688 13.296 22.272 12.912C21.856 12.512 21.256 12.312 20.472 12.312C19.832 12.312 19.144 12.52 18.408 12.936C17.672 13.352 17.28 13.568 17.232 13.584L16.056 11.712C16.408 11.456 16.96 11.128 17.712 10.728C18.48 10.312 19.416 10.104 20.52 10.104Z" fill="#363534"/>
<path d="M8.816 18.504H2.624L2.384 16.368H8.576L8.816 18.504Z" fill="#363534"/>
</svg>
