<svg width="47" height="29" viewBox="0 0 47 29" fill="none" xmlns="http://www.w3.org/2000/svg">
<path d="M31.6959 24H24.4479L24.2319 22.08H26.8239V13.56L25.4319 14.424C25.2239 14.12 25.0079 13.816 24.7839 13.512C24.5759 13.192 24.3679 12.88 24.1599 12.576L27.7359 10.416H29.5359V22.08H31.4559C31.5039 22.4 31.5439 22.728 31.5759 23.064C31.6239 23.384 31.6639 23.696 31.6959 24Z" fill="#363534"/>
<path d="M46.856 18.456H42.488V23.904L39.944 23.808V18.456H35.6L35.408 16.392H39.944V11.184L42.488 11.256V16.392H46.616L46.856 18.456Z" fill="#363534"/>
<path d="M7 26C6.45 26 5.97917 25.8042 5.5875 25.4125C5.19583 25.0208 5 24.55 5 24V11C4.71667 11 4.47917 10.9042 4.2875 10.7125C4.09583 10.5208 4 10.2833 4 10C4 9.71667 4.09583 9.47917 4.2875 9.2875C4.47917 9.09583 4.71667 9 5 9H9C9 8.71667 9.09583 8.47917 9.2875 8.2875C9.47917 8.09583 9.71667 8 10 8H14C14.2833 8 14.5208 8.09583 14.7125 8.2875C14.9042 8.47917 15 8.71667 15 9H19C19.2833 9 19.5208 9.09583 19.7125 9.2875C19.9042 9.47917 20 9.71667 20 10C20 10.2833 19.9042 10.5208 19.7125 10.7125C19.5208 10.9042 19.2833 11 19 11V24C19 24.55 18.8042 25.0208 18.4125 25.4125C18.0208 25.8042 17.55 26 17 26H7ZM17 11H7V24H17V11ZM10 22C10.2833 22 10.5208 21.9042 10.7125 21.7125C10.9042 21.5208 11 21.2833 11 21V14C11 13.7167 10.9042 13.4792 10.7125 13.2875C10.5208 13.0958 10.2833 13 10 13C9.71667 13 9.47917 13.0958 9.2875 13.2875C9.09583 13.4792 9 13.7167 9 14V21C9 21.2833 9.09583 21.5208 9.2875 21.7125C9.47917 21.9042 9.71667 22 10 22ZM14 22C14.2833 22 14.5208 21.9042 14.7125 21.7125C14.9042 21.5208 15 21.2833 15 21V14C15 13.7167 14.9042 13.4792 14.7125 13.2875C14.5208 13.0958 14.2833 13 14 13C13.7167 13 13.4792 13.0958 13.2875 13.2875C13.0958 13.4792 13 13.7167 13 14V21C13 21.2833 13.0958 21.5208 13.2875 21.7125C13.4792 21.9042 13.7167 22 14 22Z" fill="#363534"/>
</svg>
