<svg width="43" height="29" viewBox="0 0 43 29" fill="none" xmlns="http://www.w3.org/2000/svg">
<path d="M23.6959 24H16.4479L16.2319 22.08H18.8239V13.56L17.4319 14.424C17.2239 14.12 17.0079 13.816 16.7839 13.512C16.5759 13.192 16.3679 12.88 16.1599 12.576L19.7359 10.416H21.5359V22.08H23.4559C23.5039 22.4 23.5439 22.728 23.5759 23.064C23.6239 23.384 23.6639 23.696 23.6959 24Z" fill="#363534"/>
<path d="M41.856 18.456H37.488V23.904L34.944 23.808V18.456H30.6L30.408 16.392H34.944V11.184L37.488 11.256V16.392H41.616L41.856 18.456Z" fill="#363534"/>
<path d="M8.816 18.504H2.624L2.384 16.368H8.576L8.816 18.504Z" fill="#363534"/>
</svg>
