<svg width="43" height="29" viewBox="0 0 43 29" fill="none" xmlns="http://www.w3.org/2000/svg">
<path d="M42.856 18.456H38.488V23.904L35.944 23.808V18.456H31.6L31.408 16.392H35.944V11.184L38.488 11.256V16.392H42.616L42.856 18.456Z" fill="#363534"/>
<path d="M20.976 10.104C22.64 10.104 23.88 10.512 24.696 11.328C25.528 12.144 25.944 13.104 25.944 14.208C25.944 14.976 25.72 15.664 25.272 16.272C24.84 16.864 24.352 17.264 23.808 17.472C24.368 17.616 24.912 18.024 25.44 18.696C25.968 19.368 26.232 20.2 26.232 21.192C26.232 22.488 25.72 23.584 24.696 24.48C23.688 25.376 22.328 25.824 20.616 25.824C19.736 25.824 18.84 25.672 17.928 25.368C17.032 25.064 16.24 24.736 15.552 24.384L16.944 22.56C17.568 22.928 18.16 23.2 18.72 23.376C19.28 23.552 19.936 23.64 20.688 23.64C21.456 23.64 22.144 23.424 22.752 22.992C23.376 22.56 23.688 21.968 23.688 21.216C23.688 20.416 23.384 19.776 22.776 19.296C22.168 18.816 21.184 18.576 19.824 18.576H18.96L18.576 16.488H19.968C21.024 16.488 21.856 16.288 22.464 15.888C23.088 15.488 23.4 14.944 23.4 14.256C23.4 13.728 23.176 13.272 22.728 12.888C22.28 12.504 21.672 12.312 20.904 12.312C20.136 12.312 19.44 12.448 18.816 12.72C18.192 12.976 17.672 13.248 17.256 13.536L15.96 11.712C16.696 11.232 17.472 10.848 18.288 10.56C19.12 10.256 20.016 10.104 20.976 10.104Z" fill="#363534"/>
<path d="M8.816 18.504H2.624L2.384 16.368H8.576L8.816 18.504Z" fill="#363534"/>
</svg>
